<svg width="43" height="43" viewBox="0 0 43 43" fill="none" xmlns="http://www.w3.org/2000/svg">
<circle cx="21.5" cy="21.5" r="21" stroke="white"/>
<path fill-rule="evenodd" clip-rule="evenodd" d="M21.5003 20.963C24.6095 20.963 27.13 18.4425 27.13 15.3333C27.13 12.2242 24.6095 9.7037 21.5003 9.7037C18.3912 9.7037 15.8707 12.2242 15.8707 15.3333C15.8707 18.4425 18.3912 20.963 21.5003 20.963ZM21.5003 21.6667C24.9981 21.6667 27.8337 18.8311 27.8337 15.3333C27.8337 11.8355 24.9981 9 21.5003 9C18.0025 9 15.167 11.8355 15.167 15.3333C15.167 18.8311 18.0025 21.6667 21.5003 21.6667Z" fill="white"/>
<path fill-rule="evenodd" clip-rule="evenodd" d="M15.3165 25.5823C13.7089 27.8082 12.7037 30.9009 12.7037 34.333H12C12 30.7694 13.0427 27.5288 14.746 25.1703C16.4491 22.8122 18.8324 21.3145 21.5 21.3145C24.1676 21.3145 26.5509 22.8122 28.254 25.1703C29.9573 27.5288 31 30.7694 31 34.333H30.2963C30.2963 30.9009 29.2911 27.8082 27.6835 25.5823C26.0755 23.3559 23.8848 22.0182 21.5 22.0182C19.1152 22.0182 16.9245 23.3559 15.3165 25.5823Z" fill="white"/>
</svg>
